Coordinates
version=1
nRows=16
nColumns=38
inDegrees=no

Units are S.I. units (second, meters, Newtons, ...)
If the header above contains a line with 'inDegrees', this indicates whether rotational values are in degrees (yes) or radians (no).

endheader
time	pelvis_tilt	pelvis_list	pelvis_rotation	pelvis_tx	pelvis_ty	pelvis_tz	hip_flexion_r	hip_adduction_r	hip_rotation_r	knee_angle_r	ankle_angle_r	subtalar_angle_r	mtp_angle_r	hip_flexion_l	hip_adduction_l	hip_rotation_l	knee_angle_l	ankle_angle_l	subtalar_angle_l	mtp_angle_l	lumbar_extension	lumbar_bending	lumbar_rotation	arm_flex_r	arm_add_r	arm_rot_r	elbow_flex_r	pro_sup_r	wrist_flex_r	wrist_dev_r	arm_flex_l	arm_add_l	arm_rot_l	elbow_flex_l	pro_sup_l	wrist_flex_l	wrist_dev_l
2.01	-0.0930635	0.0459707	0.00235758	1.22966	1.03578	-0.321503	-0.0821974	0.0315746	0.129525	-0.678341	-0.214422	-0.0103617	-0.0050004	0.351632	0.106206	0.0542834	-0.193583	0.173971	-0.0290214	-0.00540595	-0.0598461	-0.0489526	0.265211	-0.543638	-0.285046	0.149275	2.29517	1.74505	-0.00428751	0.00297748	-0.902459	-0.213421	-0.155177	2.29298	1.6119	0.0215068	0.00774612
2.02	-0.080171	0.0494131	-0.00212797	1.2282	1.03168	-0.321644	-0.0719674	0.0272856	0.135154	-0.746203	-0.204576	-0.0103617	-0.0050004	0.348312	0.113024	0.0545654	-0.224124	0.173938	-0.0290214	-0.00540595	-0.0799882	-0.0521858	0.258391	-0.545628	-0.279436	0.144599	2.26956	1.74866	-0.00428751	0.00297748	-0.87812	-0.218028	-0.151737	2.28813	1.60924	0.0215068	0.00774612
2.03	-0.0671313	0.0543391	-0.00657432	1.22636	1.02653	-0.321845	-0.0584064	0.0203023	0.137044	-0.818857	-0.18929	-0.0103617	-0.0050004	0.350449	0.121928	0.0538392	-0.272157	0.175829	-0.0290214	-0.00540595	-0.100968	-0.0570113	0.249767	-0.545853	-0.272288	0.139299	2.24015	1.75157	-0.00428751	0.00297748	-0.851654	-0.223371	-0.148005	2.281	1.60518	0.0215068	0.00774612
2.04	-0.0543246	0.0605332	-0.0110656	1.22415	1.0204	-0.322071	-0.0413967	0.0107291	0.135402	-0.894943	-0.169876	-0.0103617	-0.0050004	0.35713	0.132568	0.0523059	-0.334054	0.18073	-0.0290214	-0.00540595	-0.122301	-0.063317	0.239452	-0.544164	-0.263691	0.133524	2.20675	1.75329	-0.00428751	0.00297748	-0.823077	-0.22944	-0.144107	2.27123	1.60009	0.0215068	0.00774612
2.05	-0.0419779	0.0676906	-0.0157119	1.22161	1.01346	-0.322265	-0.0209948	-0.00100215	0.13102	-0.973022	-0.147656	-0.0103617	-0.0050004	0.367001	0.144415	0.0501117	-0.405566	0.189892	-0.0290214	-0.00540595	-0.143674	-0.0708514	0.227596	-0.540418	-0.253741	0.127319	2.16919	1.75346	-0.00428751	0.00297748	-0.792293	-0.236104	-0.140156	2.25833	1.59453	0.0215068	0.00774612
2.06	-0.0300588	0.0754307	-0.0206152	1.21882	1.00598	-0.32237	0.00256647	-0.0141601	0.125121	-1.05159	-0.123743	-0.0103617	-0.0050004	0.378471	0.15684	0.0473278	-0.482301	0.204408	-0.0290214	-0.00540595	-0.164885	-0.0792536	0.214363	-0.534539	-0.242541	0.120628	2.12747	1.752	-0.00428751	0.00297748	-0.759163	-0.24309	-0.136262	2.2418	1.58926	0.0215068	0.00774612
2.07	-0.0184689	0.0832683	-0.0258716	1.21584	0.99831	-0.32234	0.0288437	-0.0278016	0.119126	-1.12914	-0.0988874	-0.0103617	-0.0050004	0.389807	0.16921	0.0439696	-0.56006	0.22481	-0.0290214	-0.00540595	-0.185842	-0.0881047	0.199915	-0.526601	-0.230215	0.113307	2.08191	1.74914	-0.00428751	0.00297748	-0.723598	-0.249988	-0.132548	2.22123	1.58521	0.0215068	0.00774612
2.08	-0.00711139	0.0907589	-0.0315415	1.21272	0.990722	-0.322151	0.0572324	-0.0408867	0.114387	-1.20414	-0.0734694	-0.0103617	-0.0050004	0.399273	0.18093	0.0400618	-0.635066	0.250835	-0.0290214	-0.00540595	-0.20649	-0.096915	0.184416	-0.516906	-0.216941	0.105155	2.03327	1.74547	-0.00428751	0.00297748	-0.685663	-0.256274	-0.129173	2.1965	1.58344	0.0215068	0.00774612
2.09	0.00407249	0.0974806	-0.0376348	1.20951	0.983427	-0.321811	0.0870627	-0.0524446	0.111935	-1.27512	-0.0475958	-0.0103617	-0.0050004	0.405324	0.191514	0.0357139	-0.704172	0.281461	-0.0290214	-0.00540595	-0.226706	-0.105171	0.168034	-0.506044	-0.202984	0.095955	1.98291	1.74188	-0.00428751	0.00297748	-0.645668	-0.261352	-0.126346	2.16793	1.58498	0.0215068	0.00774612
2.1	0.014947	0.103091	-0.0441098	1.20628	0.976626	-0.321343	0.117688	-0.061713	0.112269	-1.3407	-0.0212722	-0.0103617	-0.0050004	0.406769	0.200616	0.0311771	-0.765037	0.315142	-0.0290214	-0.00540595	-0.24626	-0.11235	0.150921	-0.494899	-0.188719	0.0855252	1.93274	1.73935	-0.00428751	0.00297748	-0.604232	-0.264604	-0.124331	2.1364	1.59061	0.0215068	0.00774612
2.11	0.0253562	0.107307	-0.0508276	1.20313	0.970514	-0.320794	0.148633	-0.0682499	0.115273	-1.39963	0.00543709	-0.0103617	-0.0050004	0.402956	0.208048	0.026853	-0.816167	0.35012	-0.0290214	-0.00540595	-0.264696	-0.117961	0.133197	-0.4846	-0.17464	0.0737765	1.88522	1.73882	-0.00428751	0.00297748	-0.562285	-0.265453	-0.123435	2.1034	1.60069	0.0215068	0.00774612
2.12	0.0349914	0.109914	-0.0575469	1.20014	0.96524	-0.320213	0.179625	-0.0719723	0.12024	-1.45088	0.0323152	-0.0103617	-0.0050004	0.39378	0.213755	0.0232602	-0.856859	0.384674	-0.0290214	-0.00540595	-0.281386	-0.12159	0.114927	-0.476396	-0.161315	0.0607481	1.84301	1.74092	-0.00428751	0.00297748	-0.521003	-0.263433	-0.123956	2.07097	1.61502	0.0215068	0.00774612
2.13	0.043399	0.110783	-0.0639435	1.19741	0.960901	-0.31965	0.210594	-0.0731116	0.12602	-1.49362	0.0589843	-0.0103617	-0.0050004	0.379603	0.217778	0.0209687	-0.88704	0.417285	-0.0290214	-0.00540595	-0.295604	-0.122925	0.0961342	-0.471488	-0.149317	0.0466153	1.80874	1.74599	-0.00428751	0.00297748	-0.481663	-0.258268	-0.126086	2.04142	1.63277	0.0215068	0.00774612
2.14	0.0500507	0.109873	-0.0696603	1.19502	0.957568	-0.319148	0.241603	-0.0721194	0.13124	-1.52728	0.0849635	-0.0103617	-0.0050004	0.361105	0.220193	0.0205163	-0.907049	0.446702	-0.0290214	-0.00540595	-0.306636	-0.121787	0.0768341	-0.470861	-0.13913	0.0316622	1.78453	1.75392	-0.00428751	0.00297748	-0.445452	-0.249959	-0.12978	2.01709	1.65255	0.0215068	0.00774612
2.15	0.0544473	0.107239	-0.0743807	1.19303	0.955291	-0.318728	0.272749	-0.0695611	0.134552	-1.55148	0.109754	-0.0103617	-0.0050004	0.339095	0.221076	0.0223218	-0.917443	0.471928	-0.0290214	-0.00540595	-0.313898	-0.118142	0.0571085	-0.47515	-0.131061	0.0162298	1.77177	1.76418	-0.00428751	0.00297748	-0.413267	-0.238838	-0.134606	1.99992	1.6725	0.0215068	0.00774612
2.16	0.0562439	0.103026	-0.0779022	1.19148	0.954093	-0.318393	0.304028	-0.0660221	0.134835	-1.56606	0.132915	-0.0103617	-0.0050004	0.31432	0.22049	0.0266081	-0.918833	0.492157	-0.0290214	-0.00540595	-0.317054	-0.112111	0.037173	-0.484589	-0.125197	0.000652275	1.7709	1.77581	-0.00428751	0.00297748	-0.38557	-0.225586	-0.139665	1.99118	1.69056	0.0215068	0.00774612
